<?xml version="1.0" standalone="no"?><!DOCTYPE svg PUBLIC "-//W3C//DTD SVG 1.1//EN" "http://www.w3.org/Graphics/SVG/1.1/DTD/svg11.dtd"><svg class="icon" width="200px" height="200.00px" viewBox="0 0 1024 1024" version="1.1" xmlns="http://www.w3.org/2000/svg"><path d="M889.759623 779.677459 553.203424 196.744943c-18.313088-31.718399-64.094784-31.718399-82.407871 0L134.240377 779.677459c-18.313088 31.718399 4.578272 71.367421 41.203424 71.367421l673.112398 0C885.181351 851.04488 908.072711 811.395858 889.759623 779.677459zM512 774.987646c-22.165836 0-40.136116-17.969257-40.136116-40.136116 0-22.165836 17.969257-40.136116 40.136116-40.136116s40.136116 17.969257 40.136116 40.136116C552.136116 757.01839 534.165836 774.987646 512 774.987646zM544.56672 576.60132l-21.924335 72.335469c-1.210571 3.992941-5.89629 6.642281-10.642384 6.642281s-9.431813-2.64934-10.642384-6.642281l-21.924335-72.335469c-21.058618-69.477374-30.061666-268.237207 32.56672-268.237207l0 0C574.628386 308.364113 565.625338 507.122923 544.56672 576.60132z" fill="#d81e06" /></svg>