<?xml version="1.0" standalone="no"?><!DOCTYPE svg PUBLIC "-//W3C//DTD SVG 1.1//EN" "http://www.w3.org/Graphics/SVG/1.1/DTD/svg11.dtd"><svg t="1506418066974" class="icon" style="" viewBox="0 0 1024 1024" version="1.1" xmlns="http://www.w3.org/2000/svg" p-id="8609" xmlns:xlink="http://www.w3.org/1999/xlink" width="200" height="200"><defs><style type="text/css"></style></defs><path d="M220.106512 149.061944c-13.582343 10.030447-24.695448 32.050973-24.695449 48.935526v591.355349c0 16.884552 9.844206 40.391942 21.875217 52.237735l96.743368 95.25548c12.031011 11.845793 21.875217 7.723915 21.875217-9.160637V94.249571c0-16.884552-11.113105-22.49227-24.695449-12.462846l-91.102904 67.275219z m4.26514 628.54025c-4.491291 0-8.138354-4.678556-8.138354-10.4367 0-5.759167 3.647063-10.402931 8.138354-10.402931 4.475941 0 8.104585 4.643764 8.104585 10.402931 0 5.758144-3.629667 10.4367-8.104585 10.4367z m0-37.10099c-4.491291 0-8.138354-4.677533-8.138354-10.4367 0-5.756097 3.647063-10.384511 8.138354-10.384511 4.475941 0 8.104585 4.628414 8.104585 10.384511 0 5.759167-3.629667 10.4367-8.104585 10.4367z m0-37.081547c-4.491291 0-8.138354-4.678556-8.138354-10.436699 0-5.759167 3.647063-10.401908 8.138354-10.401908 4.475941 0 8.104585 4.64274 8.104585 10.401908 0 5.757121-3.629667 10.4367-8.104585 10.436699z m0-37.117362c-4.491291 0-8.138354-4.676509-8.138354-10.434653 0-5.740748 3.647063-10.384511 8.138354-10.384512 4.475941 0 8.104585 4.643764 8.104585 10.384512 0 5.758144-3.629667 10.434653-8.104585 10.434653z m0-37.08257c-4.491291 0-8.138354-4.675486-8.138354-10.4367 0-5.738701 3.647063-10.382465 8.138354-10.382465 4.475941 0 8.104585 4.64274 8.104585 10.382465 0 5.761214-3.629667 10.4367-8.104585 10.4367z m0-37.09485c-4.491291 0-8.138354-4.680603-8.138354-10.422373 0-5.758144 3.647063-10.417257 8.138354-10.417257 4.475941 0 8.104585 4.659113 8.104585 10.417257 0 5.741771-3.629667 10.422374-8.104585 10.422373z m0-37.102013c-4.491291 0-8.138354-4.66116-8.138354-10.401907 0-5.759167 3.647063-10.420327 8.138354-10.420327 4.475941 0 8.104585 4.66116 8.104585 10.420327 0 5.740748-3.629667 10.401908-8.104585 10.401907z m0-37.096896c-4.491291 0-8.138354-4.678556-8.138354-10.419304 0-5.758144 3.647063-10.401908 8.138354-10.401907 4.475941 0 8.104585 4.643764 8.104585 10.401907 0 5.740748-3.629667 10.419304-8.104585 10.419304z m0-37.100989c-4.491291 0-8.138354-4.660136-8.138354-10.418281 0-5.757121 3.647063-10.419304 8.138354-10.419303 4.475941 0 8.104585 4.662183 8.104585 10.419303 0 5.759167-3.629667 10.41828-8.104585 10.418281z m0-37.064151c-4.491291 0-8.138354-4.677533-8.138354-10.434653 0-5.758144 3.647063-10.42135 8.138354-10.42135 4.475941 0 8.104585 4.66116 8.104585 10.42135 0 5.757121-3.629667 10.434653-8.104585 10.434653z m0-37.116339c-4.491291 0-8.138354-4.677533-8.138354-10.4367 0-5.757121 3.647063-10.400884 8.138354-10.400884 4.475941 0 8.104585 4.643764 8.104585 10.400884 0 5.759167-3.629667 10.4367-8.104585 10.4367z m0-37.08257c-4.491291 0-8.138354-4.677533-8.138354-10.435677 0-5.757121 3.647063-10.419304 8.138354-10.419303 4.475941 0 8.104585 4.66116 8.104585 10.419303 0 5.758144-3.629667 10.435677-8.104585 10.435677z m0-37.09792c-4.491291 0-8.138354-4.676509-8.138354-10.434653s3.647063-10.420327 8.138354-10.420327c4.475941 0 8.104585 4.660136 8.104585 10.420327 0 5.758144-3.629667 10.434653-8.104585 10.434653z m0-37.098943c-4.491291 0-8.138354-4.677533-8.138354-10.436699 0-5.757121 3.647063-10.384511 8.138354-10.384512 4.475941 0 8.104585 4.626367 8.104585 10.384512s-3.629667 10.4367-8.104585 10.436699z m0-37.098942c-4.491291 0-8.138354-4.677533-8.138354-10.435677 0-5.758144 3.647063-10.385535 8.138354-10.385535 4.475941 0 8.104585 4.627391 8.104585 10.385535 0 5.758144-3.629667 10.435677-8.104585 10.435677z m25.515117 535.544229c-4.474918 0-8.105608-4.675486-8.105609-10.417258 0-5.758144 3.63069-10.403954 8.105609-10.403954s8.104585 4.64581 8.104585 10.403954c0 5.740748-3.629667 10.417257-8.104585 10.417258z m0-37.063128c-4.474918 0-8.105608-4.66116-8.105609-10.420327 0-5.758144 3.63069-10.417257 8.105609-10.417257s8.104585 4.659113 8.104585 10.417257c0 5.759167-3.629667 10.420327-8.104585 10.420327z m0-37.099966c-4.474918 0-8.105608-4.675486-8.105609-10.434653 0-5.761214 3.63069-10.403954 8.105609-10.403954s8.104585 4.64274 8.104585 10.403954c0 5.759167-3.629667 10.434653-8.104585 10.434653z m0-37.08257c-4.474918 0-8.105608-4.677533-8.105609-10.435676 0-5.757121 3.63069-10.402931 8.105609-10.402931s8.104585 4.64581 8.104585 10.402931c0 5.758144-3.629667 10.435677-8.104585 10.435676z m0-37.096896c-4.474918 0-8.105608-4.678556-8.105609-10.4367 0-5.759167 3.63069-10.420327 8.105609-10.420327s8.104585 4.66116 8.104585 10.420327c0 5.758144-3.629667 10.4367-8.104585 10.4367z m0-37.099966c-4.474918 0-8.105608-4.675486-8.105609-10.4367 0-5.756097 3.63069-10.401908 8.105609-10.401908s8.104585 4.643764 8.104585 10.401908c0 5.759167-3.629667 10.4367-8.104585 10.4367z m0-37.099967c-4.474918 0-8.105608-4.677533-8.105609-10.435676 0-5.759167 3.63069-10.384511 8.105609-10.384512s8.104585 4.626367 8.104585 10.384512-3.629667 10.435677-8.104585 10.435676z m0-37.081546c-4.474918 0-8.105608-4.675486-8.105609-10.4367 0-5.756097 3.63069-10.401908 8.105609-10.401908s8.104585 4.643764 8.104585 10.401908c0 5.760191-3.629667 10.4367-8.104585 10.4367z m0-37.116339c-4.474918 0-8.105608-4.678556-8.105609-10.4367 0-5.740748 3.63069-10.384511 8.105609-10.384512s8.104585 4.643764 8.104585 10.384512c0 5.758144-3.629667 10.4367-8.104585 10.4367z m0-37.09792c-4.474918 0-8.105608-4.66116-8.105609-10.42135 0-5.739724 3.63069-10.400884 8.105609-10.400885s8.104585 4.660136 8.104585 10.400885c0 5.760191-3.629667 10.42135-8.104585 10.42135z m0-37.08257c-4.474918 0-8.105608-4.678556-8.105609-10.435677 0-5.741771 3.63069-10.401908 8.105609-10.401907s8.104585 4.660136 8.104585 10.401907c0 5.757121-3.629667 10.435677-8.104585 10.435677z m0-37.116339c-4.474918 0-8.105608-4.676509-8.105609-10.418281 0-5.758144 3.63069-10.402931 8.105609-10.40293s8.104585 4.64274 8.104585 10.40293c0 5.740748-3.629667 10.41828-8.104585 10.418281z m0-37.081547c-4.474918 0-8.105608-4.660136-8.105609-10.401907 0-5.758144 3.63069-10.420327 8.105609-10.420327s8.104585 4.66116 8.104585 10.420327c0 5.741771-3.629667 10.401908-8.104585 10.401907z m0-37.09792c-4.474918 0-8.105608-4.66116-8.105609-10.420327 0-5.758144 3.63069-10.419304 8.105609-10.419303s8.104585 4.66116 8.104585 10.419303c0 5.759167-3.629667 10.420327-8.104585 10.420327z m0-37.083593c-4.474918 0-8.105608-4.678556-8.105609-10.435676 0-5.758144 3.63069-10.402931 8.105609-10.402931s8.104585 4.644787 8.104585 10.402931c0 5.757121-3.629667 10.435677-8.104585 10.435676z m0-37.081547c-4.474918 0-8.105608-4.677533-8.105609-10.435676 0-5.757121 3.63069-10.419304 8.105609-10.419304s8.104585 4.66116 8.104585 10.419304-3.629667 10.435677-8.104585 10.435676z m25.481347 566.801117c-4.474918 0-8.123005-4.675486-8.123004-10.434653 0-5.740748 3.648087-10.401908 8.123004-10.401908 4.491291 0 8.123005 4.66116 8.123005 10.401908 0 5.759167-3.631714 10.434653-8.123005 10.434653z m0-37.114292c-4.474918 0-8.123005-4.678556-8.123004-10.437723 0-5.724375 3.648087-10.367115 8.123004-10.367116 4.491291 0 8.123005 4.64274 8.123005 10.367116 0 5.759167-3.631714 10.437723-8.123005 10.437723z m0-37.066197c-4.474918 0-8.123005-4.678556-8.123004-10.4367 0-5.740748 3.648087-10.399861 8.123004-10.399861 4.491291 0 8.123005 4.659113 8.123005 10.399861 0 5.758144-3.631714 10.4367-8.123005 10.4367z m0-37.116339c-4.474918 0-8.123005-4.676509-8.123004-10.418281 0-5.758144 3.648087-10.401908 8.123004-10.401907 4.491291 0 8.123005 4.643764 8.123005 10.401907 0 5.740748-3.631714 10.41828-8.123005 10.418281z m0-37.083594c-4.474918 0-8.123005-4.659113-8.123004-10.401907 0-5.756097 3.648087-10.417257 8.123004-10.417257 4.491291 0 8.123005 4.66116 8.123005 10.417257 0 5.743818-3.631714 10.401908-8.123005 10.401907z m0-37.096896c-4.474918 0-8.123005-4.66116-8.123004-10.420327 0-5.756097 3.648087-10.419304 8.123004-10.419304 4.491291 0 8.123005 4.663206 8.123005 10.419304 0 5.760191-3.631714 10.420327-8.123005 10.420327z m0-37.08257c-4.474918 0-8.123005-4.675486-8.123004-10.43363 0-5.759167 3.648087-10.403954 8.123004-10.403954 4.491291 0 8.123005 4.64274 8.123005 10.403954 0 5.756097-3.631714 10.43363-8.123005 10.43363z m0-37.0795c-4.474918 0-8.123005-4.677533-8.123004-10.4367 0-5.758144 3.648087-10.419304 8.123004-10.419304 4.491291 0 8.123005 4.66116 8.123005 10.419304 0 5.758144-3.631714 10.4367-8.123005 10.4367z m0-37.10099c-4.474918 0-8.123005-4.678556-8.123004-10.4367 0-5.757121 3.648087-10.419304 8.123004-10.419303 4.491291 0 8.123005 4.66116 8.123005 10.419303 0 5.759167-3.631714 10.4367-8.123005 10.4367z m0-37.116339c-4.474918 0-8.123005-4.677533-8.123004-10.4367 0-5.758144 3.648087-10.386558 8.123004-10.386558 4.491291 0 8.123005 4.628414 8.123005 10.386558 0 5.759167-3.631714 10.4367-8.123005 10.4367z m0-37.081547c-4.474918 0-8.123005-4.676509-8.123004-10.435676 0-5.758144 3.648087-10.401908 8.123004-10.401908 4.491291 0 8.123005 4.643764 8.123005 10.401908 0 5.759167-3.631714 10.435677-8.123005 10.435676z m0-37.098942c-4.474918 0-8.123005-4.677533-8.123004-10.4367s3.648087-10.401908 8.123004-10.401908c4.491291 0 8.123005 4.643764 8.123005 10.401908s-3.631714 10.4367-8.123005 10.4367z m0-37.11634c-4.474918 0-8.123005-4.677533-8.123004-10.435676 0-5.739724 3.648087-10.367115 8.123004-10.367115 4.491291 0 8.123005 4.627391 8.123005 10.367115 0 5.758144-3.631714 10.435677-8.123005 10.435676z m0-37.065173c-4.474918 0-8.123005-4.676509-8.123004-10.435677 0-5.741771 3.648087-10.401908 8.123004-10.401908 4.491291 0 8.123005 4.660136 8.123005 10.401908 0 5.759167-3.631714 10.435677-8.123005 10.435677z m0-37.115316c-4.474918 0-8.123005-4.678556-8.123004-10.435677 0-5.740748 3.648087-10.402931 8.123004-10.402931 4.491291 0 8.123005 4.662183 8.123005 10.402931 0 5.757121-3.631714 10.435677-8.123005 10.435677z m0-37.098943c-4.474918 0-8.123005-4.676509-8.123004-10.419304 0-5.740748 3.648087-10.384511 8.123004-10.384511 4.491291 0 8.123005 4.644787 8.123005 10.384511s-3.631714 10.419304-8.123005 10.419304z m0-37.08257c-4.474918 0-8.123005-4.677533-8.123004-10.419304 0-5.758144 3.648087-10.419304 8.123004-10.419304 4.491291 0 8.123005 4.66116 8.123005 10.419304 0 5.741771-3.631714 10.419304-8.123005 10.419304zM661.841192 236.46662c16.884552 0 30.699186-13.814634 30.699186-30.699186v-94.226035c0-16.884552-13.795191-31.420617-30.657231-32.301684L392.498814 65.153906c-16.86204-0.881067-30.65723 12.212136-30.657231 29.096688v833.434803c0 16.884552 13.795191 29.977755 30.657231 29.096689l269.384333-14.08581c16.86204-0.881067 30.65723-15.417131 30.657231-32.301684V298.859645c0-16.884552-13.814634-30.699186-30.699186-30.699186H441.528484c-16.884552 0-30.699186-7.131421-30.699186-15.84692s13.814634-15.84692 30.699186-15.846919h220.312708zM629.85878 131.279952c16.717753 0 30.262234 13.543458 30.262234 30.261211 0 16.715707-13.544481 30.260188-30.262234 30.260188-16.715707 0-30.260188-13.543458-30.260188-30.260188-0.001023-16.715707 13.544481-30.261211 30.260188-30.261211zM857.097224 278.580786c16.884552 0 30.699186-13.814634 30.699186-30.699186v-75.245751c0-16.884552-13.753235-31.992645-30.564109-33.573653l-100.271728-9.43079c-16.810874-1.581008-30.56411 10.940167-30.56411 27.824719v724.30022c0 16.884552 13.753235 29.404704 30.56411 27.823696l100.271728-9.432837c16.810874-1.581008 30.56411-16.690124 30.564109-33.574676V337.107761c0-16.884552-13.814634-30.699186-30.699186-30.699186h-76.088956c-16.884552 0-30.699186-6.261611-30.699186-13.913894s13.814634-13.913894 30.699186-13.913895h76.088956z m0.118704-92.351338c8.138354 0 14.757099 11.885701 14.757098 26.579356 0 14.657838-6.618744 26.560936-14.757098 26.560935-8.17417 0-14.774495-11.903098-14.774495-26.560935 0-14.69263 6.600325-26.579355 14.774495-26.579356z" fill="" p-id="8610"></path></svg>