<?xml version="1.0" standalone="no"?><!DOCTYPE svg PUBLIC "-//W3C//DTD SVG 1.1//EN" "http://www.w3.org/Graphics/SVG/1.1/DTD/svg11.dtd"><svg t="1506418080994" class="icon" style="" viewBox="0 0 1536 1024" version="1.1" xmlns="http://www.w3.org/2000/svg" p-id="8727" xmlns:xlink="http://www.w3.org/1999/xlink" width="300" height="200"><defs><style type="text/css"></style></defs><path d="M382.464 76.714667v871.253333H74.24V76.629333h308.224z m72.533333-74.922667H1.792v1021.013333h453.205333V1.792z" fill="#707070" p-id="8728"></path><path d="M319.061333 142.250667H119.637333c-15.872 0-27.306667 11.690667-27.306666 28.16v28.074666c0 16.384 11.434667 28.16 27.306666 28.16h199.424c15.872 0 27.221333-11.776 27.221334-28.16v-28.16c0-13.994667-11.349333-28.074667-27.306667-28.074666zM319.061333 273.408H119.637333c-15.872 0-27.306667 11.690667-27.306666 28.16v28.074667c0 16.384 11.434667 28.16 27.306666 28.16h199.424c15.872 0 27.221333-11.776 27.221334-28.16v-28.16c0-13.994667-11.349333-28.074667-27.306667-28.074667zM237.482667 694.954667h-27.221334c-15.872 0-27.221333 11.690667-27.221333 28.16V816.64c0 16.384 11.349333 28.16 27.221333 28.16h27.221334c15.872 0 27.136-11.776 27.136-28.16V723.029333c0-13.994667-11.264-28.074667-27.136-28.074666zM1461.333333 76.714667V807.253333H581.973333V76.8h879.36z m72.533334-74.922667H509.44V882.346667h1024.341333V1.706667zM1225.557333 929.194667h-407.893333a36.437333 36.437333 0 0 0-36.266667 37.461333v9.386667c0 20.992 15.872 37.461333 36.266667 37.461333h407.893333a36.437333 36.437333 0 0 0 36.266667-37.546667v-9.386666c0-18.688-15.872-37.376-36.266667-37.376z" fill="#707070" p-id="8729"></path></svg>