<?xml version="1.0" standalone="no"?><!DOCTYPE svg PUBLIC "-//W3C//DTD SVG 1.1//EN" "http://www.w3.org/Graphics/SVG/1.1/DTD/svg11.dtd"><svg t="1506477215504" class="icon" style="" viewBox="0 0 1024 1024" version="1.1" xmlns="http://www.w3.org/2000/svg" p-id="3648" xmlns:xlink="http://www.w3.org/1999/xlink" width="200" height="200"><defs><style type="text/css"></style></defs><path d="M391.04 234.88m-12.8 0a12.8 12.8 0 1 0 25.6 0 12.8 12.8 0 1 0-25.6 0Z" fill="#466996" p-id="3649"></path><path d="M442.24 234.88m-12.8 0a12.8 12.8 0 1 0 25.6 0 12.8 12.8 0 1 0-25.6 0Z" fill="#466996" p-id="3650"></path><path d="M493.44 234.88m-12.8 0a12.8 12.8 0 1 0 25.6 0 12.8 12.8 0 1 0-25.6 0Z" fill="#466996" p-id="3651"></path><path d="M544.64 234.88m-12.8 0a12.8 12.8 0 1 0 25.6 0 12.8 12.8 0 1 0-25.6 0Z" fill="#466996" p-id="3652"></path><path d="M391.04 365.44m-12.8 0a12.8 12.8 0 1 0 25.6 0 12.8 12.8 0 1 0-25.6 0Z" fill="#466996" p-id="3653"></path><path d="M442.24 365.44m-12.8 0a12.8 12.8 0 1 0 25.6 0 12.8 12.8 0 1 0-25.6 0Z" fill="#466996" p-id="3654"></path><path d="M391.04 496m-12.8 0a12.8 12.8 0 1 0 25.6 0 12.8 12.8 0 1 0-25.6 0Z" fill="#466996" p-id="3655"></path><path d="M442.24 496m-12.8 0a12.8 12.8 0 1 0 25.6 0 12.8 12.8 0 1 0-25.6 0Z" fill="#466996" p-id="3656"></path><path d="M493.44 496m-12.8 0a12.8 12.8 0 1 0 25.6 0 12.8 12.8 0 1 0-25.6 0Z" fill="#466996" p-id="3657"></path><path d="M391.04 626.56m-12.8 0a12.8 12.8 0 1 0 25.6 0 12.8 12.8 0 1 0-25.6 0Z" fill="#466996" p-id="3658"></path><path d="M442.24 626.56m-12.8 0a12.8 12.8 0 1 0 25.6 0 12.8 12.8 0 1 0-25.6 0Z" fill="#466996" p-id="3659"></path><path d="M493.44 626.56m-12.8 0a12.8 12.8 0 1 0 25.6 0 12.8 12.8 0 1 0-25.6 0Z" fill="#466996" p-id="3660"></path><path d="M544.64 626.56m-12.8 0a12.8 12.8 0 1 0 25.6 0 12.8 12.8 0 1 0-25.6 0Z" fill="#466996" p-id="3661"></path><path d="M600.96 626.56m-12.8 0a12.8 12.8 0 1 0 25.6 0 12.8 12.8 0 1 0-25.6 0Z" fill="#466996" p-id="3662"></path><path d="M755.2 742.4H268.8a12.8 12.8 0 0 0-12.8 12.8v97.28a12.8 12.8 0 0 0 12.8 12.8h486.4a12.8 12.8 0 0 0 12.8-12.8v-97.28a12.8 12.8 0 0 0-12.8-12.8zM714.24 719.36h12.8V153.6a12.8 12.8 0 0 0-12.8-12.8H309.76a12.8 12.8 0 0 0-12.8 12.8v565.76h417.28zM350.72 194.56h322.56v76.8H350.72V194.56z m0 130.56h322.56v76.8H350.72v-76.8z m0 130.56h322.56v76.8H350.72v-76.8z m0 128h322.56v76.8H350.72v-76.8z" fill="#466996" p-id="3663"></path><path d="M116.24448 278.1056m-11.01824 0a11.01824 11.01824 0 1 0 22.03648 0 11.01824 11.01824 0 1 0-22.03648 0Z" fill="#466996" p-id="3664"></path><path d="M160.31744 278.1056m-11.01824 0a11.01824 11.01824 0 1 0 22.03648 0 11.01824 11.01824 0 1 0-22.03648 0Z" fill="#466996" p-id="3665"></path><path d="M204.3904 278.1056m-11.01824 0a11.01824 11.01824 0 1 0 22.03648 0 11.01824 11.01824 0 1 0-22.03648 0Z" fill="#466996" p-id="3666"></path><path d="M248.46336 278.1056m-11.01824 0a11.01824 11.01824 0 1 0 22.03648 0 11.01824 11.01824 0 1 0-22.03648 0Z" fill="#466996" p-id="3667"></path><path d="M116.24448 390.49216m-11.01824 0a11.01824 11.01824 0 1 0 22.03648 0 11.01824 11.01824 0 1 0-22.03648 0Z" fill="#466996" p-id="3668"></path><path d="M160.31744 390.49216m-11.01824 0a11.01824 11.01824 0 1 0 22.03648 0 11.01824 11.01824 0 1 0-22.03648 0Z" fill="#466996" p-id="3669"></path><path d="M116.24448 502.87872m-11.01824 0a11.01824 11.01824 0 1 0 22.03648 0 11.01824 11.01824 0 1 0-22.03648 0Z" fill="#466996" p-id="3670"></path><path d="M160.31744 502.87872m-11.01824 0a11.01824 11.01824 0 1 0 22.03648 0 11.01824 11.01824 0 1 0-22.03648 0Z" fill="#466996" p-id="3671"></path><path d="M204.3904 502.87872m-11.01824 0a11.01824 11.01824 0 1 0 22.03648 0 11.01824 11.01824 0 1 0-22.03648 0Z" fill="#466996" p-id="3672"></path><path d="M116.24448 615.26528m-11.01824 0a11.01824 11.01824 0 1 0 22.03648 0 11.01824 11.01824 0 1 0-22.03648 0Z" fill="#466996" p-id="3673"></path><path d="M160.31744 615.26528m-11.01824 0a11.01824 11.01824 0 1 0 22.03648 0 11.01824 11.01824 0 1 0-22.03648 0Z" fill="#466996" p-id="3674"></path><path d="M204.3904 615.26528m-11.01824 0a11.01824 11.01824 0 1 0 22.03648 0 11.01824 11.01824 0 1 0-22.03648 0Z" fill="#466996" p-id="3675"></path><path d="M248.46336 615.26528m-11.01824 0a11.01824 11.01824 0 1 0 22.03648 0 11.01824 11.01824 0 1 0-22.03648 0Z" fill="#466996" p-id="3676"></path><path d="M273.92 696.32v-53.76H81.92v-64h192v-43.52H81.92v-66.56h192v-46.08H81.92v-66.56h192v-46.08H81.92V243.2h192V197.12H46.27712C40.192 197.12 35.84 202.05312 35.84 208.13824V696.32h238.08zM273.92 724.48v-7.68H11.01824A11.01824 11.01824 0 0 0 0 727.81824v82.92352A11.01824 11.01824 0 0 0 11.01824 821.76H238.08v-74.24a23.04 23.04 0 0 1 23.04-23.04h12.8z" fill="#466996" p-id="3677"></path><path d="M907.75552 272.9856m-11.01824 0a11.01824 11.01824 0 1 0 22.03648 0 11.01824 11.01824 0 1 0-22.03648 0Z" fill="#466996" p-id="3678"></path><path d="M863.68256 272.9856m-11.01824 0a11.01824 11.01824 0 1 0 22.03648 0 11.01824 11.01824 0 1 0-22.03648 0Z" fill="#466996" p-id="3679"></path><path d="M819.6096 272.9856m-11.01824 0a11.01824 11.01824 0 1 0 22.03648 0 11.01824 11.01824 0 1 0-22.03648 0Z" fill="#466996" p-id="3680"></path><path d="M775.53664 272.9856m-11.01824 0a11.01824 11.01824 0 1 0 22.03648 0 11.01824 11.01824 0 1 0-22.03648 0Z" fill="#466996" p-id="3681"></path><path d="M907.75552 385.37216m-11.01824 0a11.01824 11.01824 0 1 0 22.03648 0 11.01824 11.01824 0 1 0-22.03648 0Z" fill="#466996" p-id="3682"></path><path d="M863.68256 385.37216m-11.01824 0a11.01824 11.01824 0 1 0 22.03648 0 11.01824 11.01824 0 1 0-22.03648 0Z" fill="#466996" p-id="3683"></path><path d="M907.75552 497.75872m-11.01824 0a11.01824 11.01824 0 1 0 22.03648 0 11.01824 11.01824 0 1 0-22.03648 0Z" fill="#466996" p-id="3684"></path><path d="M863.68256 497.75872m-11.01824 0a11.01824 11.01824 0 1 0 22.03648 0 11.01824 11.01824 0 1 0-22.03648 0Z" fill="#466996" p-id="3685"></path><path d="M819.6096 497.75872m-11.01824 0a11.01824 11.01824 0 1 0 22.03648 0 11.01824 11.01824 0 1 0-22.03648 0Z" fill="#466996" p-id="3686"></path><path d="M907.75552 610.14528m-11.01824 0a11.01824 11.01824 0 1 0 22.03648 0 11.01824 11.01824 0 1 0-22.03648 0Z" fill="#466996" p-id="3687"></path><path d="M863.68256 610.14528m-11.01824 0a11.01824 11.01824 0 1 0 22.03648 0 11.01824 11.01824 0 1 0-22.03648 0Z" fill="#466996" p-id="3688"></path><path d="M819.6096 610.14528m-11.01824 0a11.01824 11.01824 0 1 0 22.03648 0 11.01824 11.01824 0 1 0-22.03648 0Z" fill="#466996" p-id="3689"></path><path d="M775.53664 610.14528m-11.01824 0a11.01824 11.01824 0 1 0 22.03648 0 11.01824 11.01824 0 1 0-22.03648 0Z" fill="#466996" p-id="3690"></path><path d="M988.16 691.2V203.01824c0-6.08512-4.352-11.01824-10.43712-11.01824H750.08v46.08h192v66.56h-192v46.08h192v66.56h-192v46.08h192v66.56h-192v43.52h192v64h-192v53.76h238.08zM1012.98176 711.68H750.08v7.68h12.8a23.04 23.04 0 0 1 23.04 23.04v74.24h227.06176a11.01824 11.01824 0 0 0 11.01824-11.01824v-82.92352a11.01824 11.01824 0 0 0-11.01824-11.01824z" fill="#466996" p-id="3691"></path></svg>