<?xml version="1.0" standalone="no"?><!DOCTYPE svg PUBLIC "-//W3C//DTD SVG 1.1//EN" "http://www.w3.org/Graphics/SVG/1.1/DTD/svg11.dtd"><svg t="1506477324960" class="icon" style="" viewBox="0 0 1024 1024" version="1.1" xmlns="http://www.w3.org/2000/svg" p-id="5077" xmlns:xlink="http://www.w3.org/1999/xlink" width="200" height="200"><defs><style type="text/css"></style></defs><path d="M340.13184 801.93536h-0.01536c-61.74208 0-109.93664-0.43008-143.24736-1.28512-33.34656-0.85504-52.736-1.35168-62.91968-5.57568-90.0608-21.12-119.99744-95.46752-129.83808-138.19904l-0.29184-1.6896C-9.07264 545.47968 65.80224 482.06848 125.952 462.30528c-0.72192-77.06112 21.38112-139.48928 65.78176-185.7024 58.112-60.48768 136.36096-73.73312 161.60768-73.73312 1.63328 0 3.08736 0.06144 4.38272 0.1792a307.328 307.328 0 0 1 18.304-0.55808c134.53824 0 195.80928 92.05248 214.64064 128.11776 30.01856-8.52992 58.61376-12.84608 85.1712-12.84608 61.65504 0 114.41664 23.5008 152.576 67.96288 30.84288 35.9424 46.23872 79.22688 49.86368 105.27744 117.33504 15.3344 143.5648 105.25184 143.5648 139.90912 0 69.18656-28.46208 110.16192-52.33664 132.352-26.15296 24.30976-52.66944 31.9232-53.7856 32.23552l-1.94048 0.54272-2.01728 0.03584c-3.42528 0.05632-345.55904 5.85728-571.63264 5.85728z m-186.20928-34.57536c16.05632 1.39776 61.03552 3.20512 186.19392 3.20512 216.1152 0 538.56256-5.30944 568.84224-5.81632 12.09856-4.13696 81.52064-32.29184 81.52064-133.8368 0-6.90688-3.56864-31.89248-19.4304-55.33696-21.98528-32.48128-58.6496-50.88768-108.9792-54.72256l-16.88576-1.28 2.57024-16.73728c0.98816-7.1936-7.33696-55.63904-44.06272-97.75104-32.37888-37.13024-75.39712-55.9616-127.8464-55.9616-27.15648 0-57.01632 5.15584-88.75008 15.3344l-13.75744 4.40832-5.52448-13.34272c-5.16096-12.45184-54.3744-121.66656-191.78496-121.66656-5.80608 0-11.776 0.19968-17.75104 0.58368l-1.8944 0.12288-1.8688-0.3328c-0.07168 0.01024-0.5632 0-1.17248 0-20.08064 0-88.71936 11.776-138.98752 64.09728-40.61696 42.27072-59.70944 101.18144-56.75008 175.09376l0.51712 12.9024-12.56448 2.98496c-43.49952 10.33728-122.43456 57.34912-110.67904 161.35168 8.47872 36.08064 33.8176 98.01728 108.61056 114.4064l10.43456 2.29376z" fill="#515151" p-id="5078"></path></svg>